# xmcd
#
# Track frame offsets:
#	150
#	9438
#	23815
#	36388
#	50105
#	63446
#	76025
#	86908
#	97738
#	109535
#	119417
#	130325
#	140776
#	161694
#	173253
#	184937
#	194960
#	208539
#
# Disc length: 2920 seconds
#
# Revision: 1
# Processed by: cddbd v1.5.2PL0 Copyright (c) Steve Scherf et al.
# Submitted via: audiograbber 1.83.01
#
DISCID=f90b6612
DTITLE=B. J. Thomas - Souvenirs
DYEAR=2009
DGENRE=Country
TTITLE0=Didn't It Rain
TTITLE1=I'm So Lonesome I Could Cry
TTITLE2=Mama
TTITLE3=Bring Back The Time
TTITLE4=Tomorrow Never Comes
TTITLE5=I Can't Help It (If I'm Still In Love With You)
TTITLE6=Half As Much
TTITLE7=Cold, Cold Heart
TTITLE8=Lazy Man
TTITLE9=It's Not Unusual
TTITLE10=Garner State Park
TTITLE11=In The Midnight Hour
TTITLE12=Since I Fell For You
TTITLE13=I Know It's Wrong
TTITLE14=Wisdom Of A Fool
TTITLE15=Treasure Of Love
TTITLE16=Pretty Country Girl
TTITLE17=The Rains Came
EXTD=
EXTT0=
EXTT1=
EXTT2=
EXTT3=
EXTT4=
EXTT5=
EXTT6=
EXTT7=
EXTT8=
EXTT9=
EXTT10=
EXTT11=
EXTT12=
EXTT13=
EXTT14=
EXTT15=
EXTT16=
EXTT17=
PLAYORDER=
